<svg width="1092" height="334" viewBox="0 0 1092 334" fill="none" xmlns="http://www.w3.org/2000/svg">
<g clip-path="url(#clip0_122_56)">
<path d="M953.476 12.0802C937.577 9.40736 921.521 8.48474 905.382 9.30307C878.629 10.6237 852.36 17.0003 827.962 28.1086C821.466 30.8788 817.647 37.6025 818.446 44.5753L832.379 155.77C833.177 162.14 837.028 166.473 842.794 167.482C843.867 167.648 844.996 167.657 846.357 167.712L847.768 178.972C848.232 182.676 851.564 185.269 855.266 184.805L873.18 182.56C876.882 182.096 879.472 178.762 879.007 175.058L877.596 163.798L939.632 156.025L941.043 167.285C941.507 170.989 944.913 173.572 948.541 173.117L966.53 170.863C970.231 170.399 972.821 167.065 972.357 163.361L970.946 152.101L972.25 151.712C978.589 150.09 982.612 143.792 981.425 137.319L967.603 27.014C967.082 19.254 961.111 13.0046 953.402 12.0895L953.476 12.0802ZM871.739 139.25L848.642 142.144C845.857 142.719 843.218 140.867 842.653 138.154C842.634 138.006 842.616 137.858 842.588 137.636L841.91 132.228C841.493 129.496 843.343 126.857 846.072 126.439C846.22 126.421 846.443 126.393 846.591 126.374C850.061 125.864 853.549 125.503 857.01 125.52C864.099 125.686 869.264 129.703 873.541 135.036C874.495 136.046 874.542 137.62 873.534 138.574C873.071 139.083 872.349 139.324 871.674 139.334L871.739 139.25ZM898.941 104.917C893.389 105.612 887.809 106.086 882.155 106.568C869.543 107.923 856.855 108.083 844.242 107.03C843.631 106.956 843.094 106.873 842.484 106.799C838.884 106.272 838.532 105.865 838.077 102.235L831.449 49.3416C831.004 45.7857 831.494 44.8967 834.871 43.6458C852.423 36.7062 870.698 31.9332 889.399 29.3642L898.867 104.926L898.941 104.917ZM904.493 104.221L895.025 28.6592C896.728 28.4459 898.504 28.2232 900.216 28.084C917.465 26.5246 934.807 26.9098 951.928 29.1287C954.991 29.5725 955.602 30.2484 955.992 33.3597L962.768 87.4382C963.102 90.1051 962.705 91.1331 960.17 91.9022C952.795 94.2559 945.439 96.7577 937.907 98.4539C926.868 100.966 915.755 102.885 904.503 104.295L904.493 104.221ZM967.14 122.33C967.41 125.08 965.319 127.599 962.571 127.869L939.696 130.735C938.318 131.133 936.79 130.347 936.392 128.967C936.142 128.17 936.262 127.328 936.78 126.661C940.515 118.669 946.408 113.491 955.643 112.785L960.677 112.154C963.407 111.737 966.045 113.588 966.462 116.32C966.787 118.311 967.112 120.302 967.214 122.321L967.14 122.33Z" fill="#E7C81D"/>
<path d="M978.307 41.6243C977.057 40.6523 975.502 40.2452 973.948 40.44C973.725 40.4678 973.503 40.4956 973.281 40.5234L976.781 68.4516C976.781 68.4516 977.225 68.396 977.447 68.3682C980.63 67.9693 982.97 65.0425 982.571 61.8571L980.538 45.6336C980.343 44.0779 979.566 42.6705 978.316 41.6984L978.307 41.6243Z" fill="#E7C81D"/>
<path d="M810.7 66.7646L812.732 82.9881C813.141 86.2476 816.057 88.5158 819.314 88.1076C819.536 88.0798 819.758 88.052 819.98 88.0242L816.49 60.17C816.49 60.17 816.046 60.2257 815.824 60.2535C812.641 60.6524 810.375 63.5699 810.7 66.7646Z" fill="#E7C81D"/>
</g>
<path d="M1047 248L1047.85 249.81L1047 248ZM20.0001 277.5L21.3727 278.955L20.0001 277.5ZM19.5619 333.451C20.6397 333.693 21.7095 333.016 21.9514 331.938L25.8941 314.375C26.136 313.297 25.4585 312.228 24.3807 311.986C23.303 311.744 22.2332 312.421 21.9912 313.499L18.4866 329.11L2.87516 325.606C1.79741 325.364 0.727594 326.042 0.485652 327.119C0.243711 328.197 0.921264 329.267 1.99901 329.509L19.5619 333.451ZM19.3885 327.06C18.74 326.166 17.4894 325.967 16.5953 326.615C15.7011 327.264 15.502 328.515 16.1505 329.409L19.3885 327.06ZM11.3926 323.138C12.0597 324.018 13.3142 324.191 14.1945 323.524C15.0749 322.857 15.2477 321.602 14.5806 320.722L11.3926 323.138ZM10.2292 314.4C9.66987 313.447 8.44431 313.128 7.49182 313.688C6.53934 314.247 6.22063 315.473 6.77996 316.425L10.2292 314.4ZM3.48244 308.633C3.74638 309.706 4.82983 310.362 5.9024 310.098C6.97498 309.834 7.6305 308.75 7.36656 307.678L3.48244 308.633ZM7.07839 300.629C7.25508 299.538 6.51442 298.511 5.42407 298.335C4.33373 298.158 3.30659 298.899 3.1299 299.989L7.07839 300.629ZM5.86952 291.943C5.36611 292.926 5.75504 294.131 6.73823 294.635C7.72142 295.138 8.92654 294.749 9.42995 293.766L5.86952 291.943ZM13.5201 287.456C14.1972 286.583 14.0385 285.327 13.1658 284.65C12.2931 283.973 11.0367 284.131 10.3597 285.004L13.5201 287.456ZM15.737 278.883C14.9654 279.674 14.9805 280.94 15.7708 281.711C16.5611 282.483 17.8274 282.468 18.5991 281.678L15.737 278.883ZM23.9399 276.966C24.8653 276.363 25.1265 275.124 24.5234 274.198C23.9204 273.273 22.6813 273.012 21.7559 273.615L23.9399 276.966ZM29.3222 269.862C28.2926 270.261 27.782 271.42 28.1819 272.45C28.5817 273.48 29.7406 273.99 30.7702 273.59L29.3222 269.862ZM38.2263 271.168C39.2915 270.875 39.9178 269.775 39.6253 268.709C39.3329 267.644 38.2323 267.018 37.1671 267.31L38.2263 271.168ZM44.8113 265.472C43.7305 265.701 43.0393 266.762 43.2675 267.842C43.4956 268.923 44.5567 269.614 45.6375 269.386L44.8113 265.472ZM53.5948 267.895C54.6844 267.714 55.4206 266.683 55.2392 265.594C55.0578 264.504 54.0275 263.768 52.9379 263.949L53.5948 267.895ZM60.677 262.785C59.5825 262.934 58.8158 263.942 58.9646 265.036C59.1134 266.131 60.1213 266.897 61.2158 266.748L60.677 262.785ZM69.0761 265.778C70.1738 265.655 70.964 264.666 70.8411 263.568C70.7182 262.47 69.7286 261.68 68.6309 261.803L69.0761 265.778ZM76.7603 260.974C75.6604 261.076 74.8514 262.05 74.9533 263.15C75.0552 264.25 76.0295 265.059 77.1293 264.957L76.7603 260.974ZM84.776 264.307C85.8772 264.222 86.7006 263.26 86.615 262.158C86.5294 261.057 85.5673 260.234 84.466 260.319L84.776 264.307ZM92.563 259.744C91.4607 259.816 90.6249 260.767 90.6962 261.869C90.7674 262.972 91.7188 263.807 92.821 263.736L92.563 259.744ZM100.804 263.265C101.907 263.206 102.754 262.264 102.694 261.161C102.635 260.058 101.693 259.212 100.59 259.271L100.804 263.265ZM108.353 258.891C107.25 258.94 106.395 259.874 106.444 260.978C106.493 262.081 107.428 262.936 108.531 262.887L108.353 258.891ZM116.543 262.564C117.647 262.524 118.509 261.596 118.469 260.493C118.429 259.389 117.502 258.526 116.398 258.566L116.543 262.564ZM124.561 258.301C123.457 258.333 122.587 259.254 122.619 260.358C122.651 261.462 123.572 262.331 124.676 262.299L124.561 258.301ZM132.373 262.101C133.477 262.075 134.352 261.16 134.327 260.056C134.302 258.951 133.386 258.076 132.282 258.102L132.373 262.101ZM140.214 257.944C139.11 257.963 138.23 258.873 138.249 259.978C138.268 261.082 139.178 261.962 140.283 261.943L140.214 257.944ZM148.4 261.825C149.505 261.812 150.389 260.906 150.376 259.802C150.363 258.697 149.457 257.812 148.353 257.826L148.4 261.825ZM156.289 257.749C155.184 257.757 154.296 258.659 154.304 259.764C154.312 260.869 155.214 261.757 156.318 261.749L156.289 257.749ZM164.114 261.708C165.218 261.704 166.111 260.806 166.107 259.701C166.104 258.597 165.205 257.704 164.101 257.708L164.114 261.708ZM172.073 257.697C170.968 257.696 170.072 258.591 170.072 259.696C170.071 260.8 170.966 261.696 172.071 261.697L172.073 257.697ZM180.185 261.715C181.29 261.719 182.189 260.828 182.193 259.723C182.197 258.618 181.306 257.719 180.201 257.715L180.185 261.715ZM188.108 257.759C187.004 257.751 186.102 258.64 186.094 259.745C186.086 260.849 186.975 261.751 188.08 261.759L188.108 257.759ZM195.899 261.826C197.003 261.837 197.908 260.951 197.919 259.846C197.93 258.742 197.043 257.837 195.939 257.826L195.899 261.826ZM203.894 257.916C202.789 257.902 201.883 258.786 201.869 259.891C201.855 260.995 202.739 261.902 203.843 261.916L203.894 257.916ZM211.91 262.028C213.014 262.045 213.923 261.163 213.94 260.058C213.956 258.954 213.075 258.045 211.97 258.028L211.91 262.028ZM219.967 258.159C218.862 258.139 217.951 259.019 217.932 260.123C217.913 261.228 218.793 262.139 219.897 262.158L219.967 258.159ZM227.706 262.302C228.811 262.323 229.723 261.445 229.745 260.341C229.766 259.237 228.888 258.324 227.784 258.303L227.706 262.302ZM235.7 258.464C234.596 258.441 233.682 259.317 233.658 260.421C233.634 261.525 234.51 262.44 235.615 262.463L235.7 258.464ZM243.62 262.641C244.724 262.667 245.64 261.793 245.666 260.688C245.691 259.584 244.817 258.668 243.713 258.643L243.62 262.641ZM251.819 258.837C250.714 258.81 249.797 259.683 249.769 260.787C249.742 261.891 250.615 262.809 251.719 262.836L251.819 258.837ZM259.54 263.036C260.644 263.065 261.563 262.194 261.592 261.09C261.621 259.985 260.75 259.067 259.645 259.038L259.54 263.036ZM267.519 259.251C266.415 259.22 265.495 260.09 265.464 261.194C265.434 262.299 266.304 263.218 267.408 263.249L267.519 259.251ZM275.353 263.475C276.457 263.507 277.378 262.638 277.41 261.534C277.442 260.43 276.573 259.509 275.469 259.477L275.353 263.475ZM283.494 259.715C282.39 259.681 281.468 260.549 281.435 261.653C281.401 262.757 282.269 263.679 283.373 263.713L283.494 259.715ZM291.403 263.961C292.507 263.995 293.43 263.128 293.465 262.024C293.499 260.92 292.633 259.997 291.529 259.963L291.403 263.961ZM299.364 260.213C298.26 260.177 297.336 261.043 297.3 262.147C297.265 263.251 298.13 264.175 299.234 264.211L299.364 260.213ZM307.128 264.471C308.232 264.507 309.157 263.642 309.194 262.538C309.231 261.434 308.366 260.51 307.262 260.473L307.128 264.471ZM315.22 260.742C314.116 260.704 313.19 261.568 313.152 262.672C313.115 263.776 313.979 264.702 315.083 264.74L315.22 260.742ZM323.095 265.017C324.199 265.056 325.125 264.193 325.164 263.089C325.203 261.985 324.339 261.059 323.235 261.02L323.095 265.017ZM331.235 261.303C330.131 261.264 329.204 262.127 329.165 263.231C329.125 264.334 329.988 265.261 331.092 265.301L331.235 261.303ZM338.948 265.585C340.051 265.625 340.979 264.763 341.019 263.659C341.059 262.555 340.197 261.628 339.093 261.587L338.948 265.585ZM347 261.878C345.896 261.837 344.968 262.699 344.927 263.803C344.886 264.907 345.748 265.834 346.851 265.875L347 261.878ZM354.802 266.172C355.906 266.214 356.834 265.353 356.876 264.249C356.917 263.145 356.056 262.217 354.952 262.175L354.802 266.172ZM362.949 262.478C361.845 262.436 360.917 263.297 360.874 264.4C360.832 265.504 361.693 266.433 362.797 266.475L362.949 262.478ZM370.797 266.782C371.901 266.824 372.83 265.964 372.873 264.86C372.915 263.757 372.055 262.827 370.951 262.785L370.797 266.782ZM378.823 263.09C377.72 263.047 376.79 263.907 376.747 265.01C376.704 266.114 377.564 267.044 378.668 267.087L378.823 263.09ZM386.575 267.396C387.679 267.439 388.609 266.579 388.652 265.476C388.695 264.372 387.836 263.442 386.732 263.399L386.575 267.396ZM394.675 263.712C393.572 263.668 392.641 264.527 392.598 265.631C392.554 266.735 393.414 267.665 394.517 267.709L394.675 263.712ZM402.493 268.025C403.596 268.069 404.527 267.21 404.571 266.106C404.615 265.002 403.755 264.072 402.652 264.028L402.493 268.025ZM410.659 264.347C409.556 264.303 408.625 265.162 408.581 266.266C408.537 267.369 409.396 268.3 410.5 268.344L410.659 264.347ZM418.39 268.66C419.493 268.704 420.424 267.845 420.468 266.741C420.512 265.638 419.654 264.707 418.55 264.663L418.39 268.66ZM426.46 264.98C425.357 264.936 424.426 265.795 424.382 266.899C424.337 268.002 425.196 268.933 426.3 268.977L426.46 264.98ZM434.235 269.296C435.339 269.341 436.269 268.482 436.314 267.378C436.358 266.275 435.499 265.344 434.396 265.3L434.235 269.296ZM442.354 265.62C441.251 265.575 440.32 266.434 440.275 267.538C440.231 268.642 441.09 269.572 442.193 269.617L442.354 265.62ZM450.174 269.938C451.278 269.982 452.208 269.123 452.253 268.02C452.297 266.916 451.438 265.985 450.335 265.941L450.174 269.938ZM458.27 266.26C457.166 266.215 456.236 267.074 456.191 268.178C456.147 269.282 457.006 270.212 458.109 270.257L458.27 266.26ZM466.025 270.574C467.129 270.618 468.06 269.759 468.104 268.655C468.148 267.552 467.289 266.621 466.185 266.577L466.025 270.574ZM474.117 266.894C473.013 266.85 472.083 267.709 472.039 268.813C471.995 269.916 472.854 270.847 473.958 270.891L474.117 266.894ZM481.904 271.207C483.008 271.251 483.938 270.391 483.982 269.288C484.026 268.184 483.167 267.254 482.063 267.21L481.904 271.207ZM490.022 267.525C488.918 267.481 487.988 268.341 487.945 269.444C487.901 270.548 488.761 271.478 489.864 271.522L490.022 267.525ZM497.823 271.835C498.927 271.878 499.856 271.018 499.9 269.914C499.943 268.811 499.083 267.881 497.979 267.838L497.823 271.835ZM505.905 268.147C504.802 268.104 503.872 268.964 503.829 270.068C503.786 271.171 504.646 272.101 505.75 272.144L505.905 268.147ZM513.685 272.451C514.789 272.493 515.718 271.633 515.761 270.529C515.803 269.425 514.943 268.496 513.839 268.454L513.685 272.451ZM521.779 268.758C520.675 268.716 519.747 269.576 519.705 270.68C519.662 271.784 520.523 272.713 521.627 272.755L521.779 268.758ZM529.573 273.056C530.677 273.098 531.606 272.237 531.647 271.133C531.689 270.029 530.828 269.1 529.724 269.059L529.573 273.056ZM537.672 269.356C536.568 269.315 535.64 270.177 535.599 271.281C535.558 272.385 536.419 273.313 537.523 273.354L537.672 269.356ZM545.47 273.647C546.574 273.688 547.501 272.826 547.542 271.722C547.582 270.618 546.72 269.691 545.616 269.65L545.47 273.647ZM553.56 269.939C552.456 269.899 551.529 270.762 551.489 271.866C551.449 272.97 552.311 273.897 553.415 273.937L553.56 269.939ZM561.359 274.221C562.463 274.261 563.39 273.398 563.429 272.294C563.468 271.19 562.605 270.263 561.501 270.224L561.359 274.221ZM569.44 270.504C568.336 270.465 567.409 271.329 567.371 272.433C567.332 273.536 568.196 274.463 569.3 274.501L569.44 270.504ZM577.236 274.776C578.34 274.813 579.265 273.949 579.303 272.845C579.341 271.741 578.477 270.816 577.373 270.778L577.236 274.776ZM585.315 271.047C584.211 271.01 583.286 271.875 583.249 272.979C583.212 274.083 584.077 275.008 585.181 275.045L585.315 271.047ZM593.144 275.308C594.248 275.345 595.173 274.479 595.209 273.375C595.245 272.271 594.379 271.347 593.275 271.311L593.144 275.308ZM601.226 271.568C600.122 271.532 599.198 272.399 599.163 273.503C599.128 274.607 599.994 275.53 601.098 275.566L601.226 271.568ZM609.04 275.816C610.144 275.85 611.067 274.983 611.101 273.879C611.136 272.775 610.268 271.852 609.164 271.818L609.04 275.816ZM617.09 272.061C615.986 272.027 615.064 272.895 615.031 273.999C614.998 275.103 615.866 276.026 616.97 276.059L617.09 272.061ZM624.885 276.294C625.989 276.326 626.91 275.457 626.942 274.353C626.974 273.249 626.106 272.328 625.002 272.296L624.885 276.294ZM632.983 272.525C631.879 272.494 630.958 273.364 630.927 274.468C630.896 275.572 631.766 276.492 632.87 276.523L632.983 272.525ZM640.84 276.744C641.944 276.774 642.864 275.903 642.894 274.799C642.924 273.695 642.053 272.776 640.949 272.746L640.84 276.744ZM648.895 272.957C647.791 272.928 646.872 273.8 646.843 274.904C646.815 276.009 647.686 276.927 648.791 276.956L648.895 272.957ZM656.719 277.158C657.824 277.186 658.741 276.313 658.769 275.209C658.796 274.104 657.923 273.187 656.819 273.159L656.719 277.158ZM664.72 273.351C663.616 273.325 662.699 274.199 662.673 275.303C662.647 276.408 663.521 277.324 664.625 277.35L664.72 273.351ZM672.592 277.534C673.697 277.559 674.612 276.684 674.637 275.58C674.662 274.475 673.786 273.56 672.682 273.535L672.592 277.534ZM680.669 273.709C679.565 273.686 678.651 274.562 678.628 275.666C678.604 276.771 679.481 277.685 680.585 277.708L680.669 273.709ZM688.548 277.871C689.653 277.892 690.566 277.015 690.587 275.91C690.609 274.806 689.732 273.893 688.627 273.871L688.548 277.871ZM696.554 274.022C695.45 274.002 694.538 274.881 694.518 275.985C694.498 277.089 695.377 278.001 696.481 278.021L696.554 274.022ZM704.381 278.159C705.485 278.178 706.395 277.297 706.414 276.193C706.432 275.089 705.552 274.178 704.448 274.16L704.381 278.159ZM712.377 274.286C711.272 274.269 710.363 275.151 710.347 276.256C710.33 277.36 711.212 278.269 712.316 278.286L712.377 274.286ZM720.335 278.4C721.439 278.415 722.347 277.532 722.362 276.427C722.376 275.323 721.493 274.415 720.389 274.4L720.335 278.4ZM728.36 274.501C727.256 274.488 726.35 275.373 726.337 276.477C726.324 277.582 727.209 278.487 728.314 278.5L728.36 274.501ZM736.25 278.586C737.355 278.597 738.259 277.71 738.27 276.605C738.281 275.501 737.394 274.597 736.29 274.586L736.25 278.586ZM744.175 274.656C743.071 274.647 742.168 275.536 742.16 276.64C742.151 277.745 743.039 278.647 744.144 278.656L744.175 274.656ZM752.05 278.711C753.155 278.717 754.056 277.827 754.062 276.723C754.069 275.618 753.178 274.717 752.074 274.711L752.05 278.711ZM760.11 274.75C759.005 274.746 758.107 275.638 758.103 276.742C758.098 277.847 758.99 278.746 760.095 278.75L760.11 274.75ZM768.087 278.771C769.192 278.773 770.088 277.879 770.09 276.774C770.092 275.67 769.198 274.773 768.093 274.771L768.087 278.771ZM776.021 274.775C774.917 274.775 774.022 275.671 774.023 276.776C774.023 277.881 774.92 278.775 776.024 278.775L776.021 274.775ZM783.905 278.759C785.009 278.756 785.902 277.857 785.898 276.753C785.895 275.648 784.997 274.756 783.892 274.759L783.905 278.759ZM791.785 274.724C790.681 274.73 789.791 275.631 789.797 276.735C789.803 277.84 790.704 278.73 791.808 278.724L791.785 274.724ZM799.872 278.667C800.977 278.658 801.865 277.755 801.855 276.65C801.846 275.546 800.943 274.658 799.839 274.667L799.872 278.667ZM807.823 274.588C806.719 274.601 805.833 275.506 805.846 276.611C805.858 277.715 806.764 278.601 807.868 278.588L807.823 274.588ZM815.794 278.487C816.898 278.471 817.781 277.563 817.765 276.458C817.749 275.354 816.841 274.471 815.737 274.487L815.794 278.487ZM823.577 274.363C822.472 274.382 821.592 275.293 821.612 276.398C821.631 277.502 822.542 278.382 823.646 278.363L823.577 274.363ZM831.604 278.211C832.708 278.188 833.585 277.274 833.562 276.17C833.539 275.066 832.625 274.189 831.521 274.212L831.604 278.211ZM839.573 274.031C838.468 274.058 837.595 274.975 837.622 276.079C837.648 277.183 838.565 278.057 839.67 278.03L839.573 274.031ZM847.648 277.821C848.752 277.79 849.622 276.87 849.591 275.766C849.56 274.662 848.64 273.792 847.536 273.823L847.648 277.821ZM855.408 273.587C854.304 273.622 853.437 274.546 853.473 275.65C853.508 276.754 854.431 277.62 855.535 277.585L855.408 273.587ZM863.33 277.321C864.434 277.281 865.296 276.354 865.257 275.25C865.217 274.146 864.29 273.283 863.186 273.323L863.33 277.321ZM871.274 273.014C870.171 273.059 869.312 273.99 869.357 275.093C869.402 276.197 870.333 277.055 871.436 277.011L871.274 273.014ZM879.468 276.666C880.572 276.616 881.425 275.681 881.375 274.577C881.325 273.474 880.39 272.62 879.287 272.67L879.468 276.666ZM887.185 272.292C886.082 272.348 885.233 273.287 885.288 274.39C885.344 275.493 886.283 276.343 887.386 276.287L887.185 272.292ZM895.188 275.874C896.29 275.812 897.135 274.868 897.073 273.765C897.012 272.663 896.068 271.818 894.965 271.88L895.188 275.874ZM902.944 271.412C901.841 271.48 901.002 272.429 901.07 273.531C901.138 274.634 902.087 275.473 903.189 275.405L902.944 271.412ZM911.262 274.883C912.364 274.808 913.196 273.854 913.122 272.752C913.047 271.65 912.093 270.817 910.991 270.892L911.262 274.883ZM918.892 270.329C917.79 270.411 916.964 271.371 917.046 272.472C917.128 273.574 918.088 274.4 919.189 274.318L918.892 270.329ZM926.968 273.709C928.069 273.619 928.889 272.654 928.799 271.553C928.709 270.452 927.743 269.633 926.642 269.723L926.968 273.709ZM934.595 269.041C933.494 269.14 932.683 270.112 932.782 271.212C932.88 272.312 933.852 273.124 934.952 273.025L934.595 269.041ZM943.026 272.264C944.125 272.156 944.928 271.177 944.82 270.078C944.711 268.978 943.732 268.175 942.633 268.284L943.026 272.264ZM950.481 267.472C949.383 267.591 948.589 268.578 948.708 269.676C948.827 270.774 949.813 271.568 950.911 271.449L950.481 267.472ZM958.604 270.578C959.701 270.449 960.485 269.454 960.355 268.357C960.225 267.26 959.231 266.476 958.134 266.606L958.604 270.578ZM966.199 265.604C965.104 265.747 964.332 266.75 964.474 267.846C964.617 268.941 965.621 269.713 966.716 269.57L966.199 265.604ZM974.699 268.478C975.792 268.321 976.551 267.308 976.394 266.214C976.237 265.121 975.224 264.362 974.13 264.519L974.699 268.478ZM981.806 263.363C980.715 263.535 979.97 264.56 980.142 265.651C980.315 266.742 981.339 267.486 982.43 267.314L981.806 263.363ZM990.299 266.007C991.387 265.817 992.115 264.781 991.925 263.693C991.735 262.605 990.698 261.877 989.61 262.067L990.299 266.007ZM997.564 260.601C996.48 260.812 995.772 261.862 995.982 262.946C996.193 264.03 997.243 264.739 998.327 264.528L997.564 260.601ZM1006.02 262.952C1007.1 262.718 1007.78 261.654 1007.55 260.574C1007.31 259.495 1006.25 258.809 1005.17 259.042L1006.02 262.952ZM1012.84 257.284C1011.77 257.545 1011.11 258.626 1011.37 259.699C1011.63 260.773 1012.71 261.432 1013.79 261.172L1012.84 257.284ZM1021.71 259.125C1022.78 258.831 1023.4 257.73 1023.11 256.665C1022.82 255.601 1021.71 254.975 1020.65 255.268L1021.71 259.125ZM1027.96 253.122C1026.91 253.452 1026.32 254.574 1026.65 255.628C1026.98 256.683 1028.1 257.269 1029.16 256.939L1027.96 253.122ZM1036.98 254.295C1038.02 253.917 1038.56 252.769 1038.18 251.731C1037.8 250.693 1036.65 250.159 1035.61 250.537L1036.98 254.295ZM1042.82 247.684C1041.81 248.121 1041.34 249.297 1041.78 250.312C1042.21 251.326 1043.39 251.795 1044.41 251.358L1042.82 247.684ZM1051.6 247.973C1052.59 247.47 1052.98 246.265 1052.47 245.282C1051.97 244.298 1050.77 243.908 1049.78 244.411L1051.6 247.973ZM1056.73 240.538C1055.79 241.113 1055.49 242.343 1056.06 243.287C1056.64 244.23 1057.87 244.53 1058.81 243.955L1056.73 240.538ZM1065.68 239.365C1066.57 238.71 1066.76 237.458 1066.1 236.568C1065.45 235.679 1064.2 235.488 1063.31 236.143L1065.68 239.365ZM1069.44 231.137C1068.62 231.881 1068.56 233.146 1069.3 233.963C1070.05 234.78 1071.31 234.839 1072.13 234.096L1069.44 231.137ZM1077.97 228.111C1078.69 227.274 1078.59 226.011 1077.75 225.291C1076.92 224.571 1075.65 224.666 1074.93 225.503L1077.97 228.111ZM1079.61 219.248C1079.01 220.178 1079.28 221.415 1080.21 222.011C1081.14 222.606 1082.38 222.335 1082.97 221.405L1079.61 219.248ZM1086.96 213.979C1087.4 212.968 1086.94 211.788 1085.93 211.345C1084.92 210.902 1083.74 211.363 1083.29 212.375L1086.96 213.979ZM1085.81 205.026C1085.54 206.098 1086.19 207.185 1087.26 207.455C1088.33 207.725 1089.42 207.076 1089.69 206.004L1085.81 205.026ZM1091.07 197.684C1091.16 196.583 1090.34 195.618 1089.24 195.527C1088.14 195.436 1087.17 196.255 1087.08 197.356L1091.07 197.684ZM1087.11 189.564C1087.19 190.666 1088.15 191.495 1089.25 191.415C1090.35 191.335 1091.18 190.378 1091.1 189.276L1087.11 189.564ZM1089.91 180.975C1089.68 179.895 1088.61 179.206 1087.53 179.437C1086.45 179.669 1085.77 180.732 1086 181.812L1089.91 180.975ZM1083.88 174.238C1084.24 175.282 1085.38 175.837 1086.42 175.477C1087.46 175.117 1088.02 173.979 1087.66 172.935L1083.88 174.238ZM1084.53 165.224C1084.06 164.223 1082.87 163.791 1081.87 164.259C1080.87 164.726 1080.44 165.916 1080.9 166.917L1084.53 165.224ZM1077.22 159.901C1077.78 160.855 1079 161.178 1079.95 160.621C1080.91 160.065 1081.23 158.84 1080.67 157.886L1077.22 159.901ZM1076.21 150.9C1075.58 149.993 1074.33 149.769 1073.42 150.4C1072.52 151.031 1072.29 152.277 1072.92 153.184L1076.21 150.9ZM1068.15 146.821C1068.84 147.682 1070.1 147.817 1070.96 147.124C1071.82 146.432 1071.96 145.173 1071.27 144.312L1068.15 146.821ZM1065.9 138.066C1065.15 137.251 1063.89 137.195 1063.07 137.94C1062.26 138.686 1062.2 139.951 1062.95 140.766L1065.9 138.066ZM1057.37 135.017C1058.16 135.788 1059.43 135.772 1060.2 134.981C1060.97 134.19 1060.96 132.924 1060.17 132.153L1057.37 135.017ZM1054.12 126.564C1053.29 125.835 1052.03 125.917 1051.3 126.747C1050.57 127.577 1050.65 128.841 1051.48 129.57L1054.12 126.564ZM1045.34 124.434C1046.2 125.122 1047.46 124.979 1048.15 124.115C1048.84 123.251 1048.69 121.993 1047.83 121.305L1045.34 124.434ZM1041.3 116.346C1040.41 115.697 1039.16 115.897 1038.51 116.791C1037.86 117.685 1038.06 118.936 1038.95 119.584L1041.3 116.346ZM1032.36 115.013C1033.28 115.623 1034.52 115.371 1035.13 114.45C1035.74 113.529 1035.49 112.288 1034.56 111.678L1032.36 115.013ZM1027.64 107.295C1026.7 106.723 1025.47 107.025 1024.89 107.97C1024.32 108.915 1024.62 110.145 1025.57 110.717L1027.64 107.295ZM1018.61 106.69C1019.58 107.225 1020.8 106.875 1021.33 105.908C1021.87 104.942 1021.52 103.725 1020.55 103.19L1018.61 106.69ZM20 331.5L21.6896 330.43C20.9625 329.282 20.1861 328.16 19.3885 327.06L17.7695 328.234L16.1505 329.409C16.9145 330.462 17.6404 331.512 18.3103 332.57L20 331.5ZM12.9866 321.93L14.5806 320.722C12.9764 318.605 11.4783 316.527 10.2292 314.4L8.50458 315.412L6.77996 316.425C8.1506 318.759 9.76275 320.987 11.3926 323.138L12.9866 321.93ZM5.4245 308.156L7.36656 307.678C6.82176 305.464 6.67155 303.139 7.07839 300.629L5.10415 300.309L3.1299 299.989C2.63154 303.064 2.81764 305.932 3.48244 308.633L5.4245 308.156ZM7.64973 292.854L9.42995 293.766C10.4374 291.798 11.779 289.7 13.5201 287.456L11.9399 286.23L10.3597 285.004C8.48999 287.414 7.00706 289.721 5.86952 291.943L7.64973 292.854ZM17.168 280.28L18.5991 281.678C19.4662 280.789 20.3899 279.882 21.3727 278.955L20.0001 277.5L18.6274 276.045C17.6073 277.008 16.6446 277.954 15.737 278.883L17.168 280.28ZM20.0001 277.5L21.3727 278.955C22.0836 278.284 22.9367 277.62 23.9399 276.966L22.8479 275.29L21.7559 273.615C20.5869 274.377 19.5392 275.185 18.6274 276.045L20.0001 277.5ZM30.0462 271.726L30.7702 273.59C32.9741 272.734 35.4613 271.927 38.2263 271.168L37.6967 269.239L37.1671 267.31C34.2979 268.098 31.6775 268.947 29.3222 269.862L30.0462 271.726ZM45.2244 267.429L45.6375 269.386C48.1341 268.859 50.788 268.362 53.5948 267.895L53.2664 265.922L52.9379 263.949C50.0817 264.425 47.3708 264.932 44.8113 265.472L45.2244 267.429ZM60.9464 264.767L61.2158 266.748C63.7376 266.406 66.3586 266.082 69.0761 265.778L68.8535 263.791L68.6309 261.803C65.885 262.11 63.2326 262.438 60.677 262.785L60.9464 264.767ZM76.9448 262.965L77.1293 264.957C79.6106 264.727 82.16 264.511 84.776 264.307L84.621 262.313L84.466 260.319C81.8317 260.524 79.2625 260.742 76.7603 260.974L76.9448 262.965ZM92.692 261.74L92.821 263.736C95.4248 263.568 98.0864 263.411 100.804 263.265L100.697 261.268L100.59 259.271C97.8583 259.417 95.1821 259.575 92.563 259.744L92.692 261.74ZM108.442 260.889L108.531 262.887C111.155 262.77 113.826 262.662 116.543 262.564L116.47 260.565L116.398 258.566C113.67 258.665 110.988 258.773 108.353 258.891L108.442 260.889ZM124.619 260.3L124.676 262.299C127.206 262.226 129.772 262.16 132.373 262.101L132.327 260.101L132.282 258.102C129.673 258.161 127.099 258.227 124.561 258.301L124.619 260.3ZM140.248 259.943L140.283 261.943C142.954 261.897 145.66 261.858 148.4 261.825L148.376 259.826L148.353 257.826C145.606 257.858 142.893 257.898 140.214 257.944L140.248 259.943ZM156.304 259.749L156.318 261.749C158.89 261.73 161.488 261.716 164.114 261.708L164.107 259.708L164.101 257.708C161.47 257.716 158.866 257.73 156.289 257.749L156.304 259.749ZM172.072 259.697L172.071 261.697C174.75 261.698 177.455 261.704 180.185 261.715L180.193 259.715L180.201 257.715C177.466 257.704 174.756 257.698 172.073 257.697L172.072 259.697ZM188.094 259.759L188.08 261.759C190.665 261.777 193.271 261.8 195.899 261.826L195.919 259.826L195.939 257.826C193.308 257.8 190.697 257.778 188.108 257.759L188.094 259.759ZM203.868 259.916L203.843 261.916C206.512 261.95 209.201 261.987 211.91 262.028L211.94 260.028L211.97 258.028C209.258 257.987 206.566 257.95 203.894 257.916L203.868 259.916ZM219.932 260.158L219.897 262.158C222.483 262.203 225.086 262.251 227.706 262.302L227.745 260.302L227.784 258.303C225.161 258.252 222.556 258.204 219.967 258.159L219.932 260.158ZM235.658 260.464L235.615 262.463C238.267 262.52 240.936 262.579 243.62 262.641L243.666 260.642L243.713 258.643C241.026 258.58 238.355 258.521 235.7 258.464L235.658 260.464ZM251.769 260.837L251.719 262.836C254.312 262.9 256.92 262.967 259.54 263.036L259.593 261.037L259.645 259.038C257.023 258.968 254.414 258.902 251.819 258.837L251.769 260.837ZM267.463 261.25L267.408 263.249C270.044 263.322 272.692 263.397 275.353 263.475L275.411 261.476L275.469 259.477C272.807 259.399 270.156 259.324 267.519 259.251L267.463 261.25ZM283.434 261.714L283.373 263.713C286.038 263.794 288.715 263.876 291.403 263.961L291.466 261.962L291.529 259.963C288.839 259.878 286.161 259.795 283.494 259.715L283.434 261.714ZM299.299 262.212L299.234 264.211C301.855 264.296 304.487 264.382 307.128 264.471L307.195 262.472L307.262 260.473C304.619 260.385 301.986 260.298 299.364 260.213L299.299 262.212ZM315.151 262.741L315.083 264.74C317.744 264.831 320.415 264.923 323.095 265.017L323.165 263.019L323.235 261.02C320.554 260.926 317.882 260.833 315.22 260.742L315.151 262.741ZM331.164 263.302L331.092 265.301C333.702 265.394 336.321 265.489 338.948 265.585L339.02 263.586L339.093 261.587C336.466 261.492 333.846 261.397 331.235 261.303L331.164 263.302ZM346.926 263.877L346.851 265.875C349.494 265.973 352.144 266.072 354.802 266.172L354.877 264.174L354.952 262.175C352.294 262.075 349.643 261.976 347 261.878L346.926 263.877ZM362.873 264.477L362.797 266.475C365.457 266.576 368.124 266.679 370.797 266.782L370.874 264.783L370.951 262.785C368.277 262.682 365.61 262.579 362.949 262.478L362.873 264.477ZM378.745 265.088L378.668 267.087C381.297 267.189 383.933 267.292 386.575 267.396L386.653 265.397L386.732 263.399C384.09 263.295 381.453 263.192 378.823 263.09L378.745 265.088ZM394.596 265.71L394.517 267.709C397.17 267.813 399.829 267.919 402.493 268.025L402.572 266.026L402.652 264.028C399.988 263.922 397.329 263.817 394.675 263.712L394.596 265.71ZM410.58 266.346L410.5 268.344C413.125 268.449 415.755 268.554 418.39 268.66L418.47 266.661L418.55 264.663C415.915 264.557 413.285 264.452 410.659 264.347L410.58 266.346ZM426.38 266.979L426.3 268.977C428.941 269.083 431.586 269.19 434.235 269.296L434.315 267.298L434.396 265.3C431.747 265.193 429.101 265.087 426.46 264.98L426.38 266.979ZM442.274 267.618L442.193 269.617C444.85 269.724 447.51 269.831 450.174 269.938L450.254 267.939L450.335 265.941C447.671 265.834 445.011 265.727 442.354 265.62L442.274 267.618ZM458.19 268.258L458.109 270.257C460.745 270.362 463.384 270.468 466.025 270.574L466.105 268.575L466.185 266.577C463.544 266.471 460.906 266.366 458.27 266.26L458.19 268.258ZM474.037 268.892L473.958 270.891C476.604 270.996 479.253 271.102 481.904 271.207L481.984 269.208L482.063 267.21C479.412 267.105 476.763 266.999 474.117 266.894L474.037 268.892ZM489.943 269.523L489.864 271.522C492.515 271.626 495.168 271.731 497.823 271.835L497.901 269.836L497.979 267.838C495.325 267.734 492.673 267.629 490.022 267.525L489.943 269.523ZM505.828 270.145L505.75 272.144C508.394 272.247 511.039 272.349 513.685 272.451L513.762 270.452L513.839 268.454C511.193 268.352 508.549 268.25 505.905 268.147L505.828 270.145ZM521.703 270.756L521.627 272.755C524.275 272.856 526.924 272.956 529.573 273.056L529.649 271.057L529.724 269.059C527.075 268.959 524.427 268.859 521.779 268.758L521.703 270.756ZM537.598 271.355L537.523 273.354C540.172 273.452 542.821 273.55 545.47 273.647L545.543 271.649L545.616 269.65C542.968 269.553 540.32 269.455 537.672 269.356L537.598 271.355ZM553.487 271.938L553.415 273.937C556.064 274.032 558.712 274.127 561.359 274.221L561.43 272.223L561.501 270.224C558.855 270.13 556.207 270.035 553.56 269.939L553.487 271.938ZM569.37 272.502L569.3 274.501C571.946 274.594 574.592 274.685 577.236 274.776L577.304 272.777L577.373 270.778C574.729 270.687 572.085 270.596 569.44 270.504L569.37 272.502ZM585.248 273.046L585.181 275.045C587.837 275.134 590.491 275.222 593.144 275.308L593.21 273.31L593.275 271.311C590.623 271.224 587.97 271.136 585.315 271.047L585.248 273.046ZM601.162 273.567L601.098 275.566C603.747 275.65 606.395 275.734 609.04 275.816L609.102 273.817L609.164 271.818C606.52 271.736 603.874 271.652 601.226 271.568L601.162 273.567ZM617.03 274.06L616.97 276.059C619.61 276.139 622.249 276.217 624.885 276.294L624.943 274.295L625.002 272.296C622.367 272.219 619.73 272.14 617.09 272.061L617.03 274.06ZM632.926 274.524L632.87 276.523C635.53 276.598 638.187 276.672 640.84 276.744L640.894 274.745L640.949 272.746C638.297 272.674 635.641 272.6 632.983 272.525L632.926 274.524ZM648.843 274.957L648.791 276.956C651.437 277.025 654.08 277.092 656.719 277.158L656.769 275.159L656.819 273.159C654.181 273.094 651.54 273.026 648.895 272.957L648.843 274.957ZM664.673 275.351L664.625 277.35C667.285 277.413 669.941 277.475 672.592 277.534L672.637 275.535L672.682 273.535C670.033 273.476 667.378 273.414 664.72 273.351L664.673 275.351ZM680.627 275.709L680.585 277.708C683.245 277.764 685.899 277.818 688.548 277.871L688.588 275.871L688.627 273.871C685.98 273.819 683.327 273.765 680.669 273.709L680.627 275.709ZM696.517 276.021L696.481 278.021C699.12 278.069 701.753 278.115 704.381 278.159L704.414 276.16L704.448 274.16C701.822 274.116 699.191 274.07 696.554 274.022L696.517 276.021ZM712.346 276.286L712.316 278.286C714.995 278.326 717.668 278.364 720.335 278.4L720.362 276.4L720.389 274.4C717.724 274.365 715.054 274.327 712.377 274.286L712.346 276.286ZM728.337 276.5L728.314 278.5C730.966 278.531 733.612 278.56 736.25 278.586L736.27 276.586L736.29 274.586C733.654 274.56 731.011 274.532 728.36 274.501L728.337 276.5ZM744.16 276.656L744.144 278.656C746.787 278.677 749.423 278.695 752.05 278.711L752.062 276.711L752.074 274.711C749.449 274.695 746.816 274.677 744.175 274.656L744.16 276.656ZM760.102 276.75L760.095 278.75C762.768 278.76 765.432 278.767 768.087 278.771L768.09 276.771L768.093 274.771C765.441 274.767 762.78 274.76 760.11 274.75L760.102 276.75ZM776.023 276.775L776.024 278.775C778.661 278.773 781.288 278.767 783.905 278.759L783.898 276.759L783.892 274.759C781.278 274.767 778.654 274.773 776.021 274.775L776.023 276.775ZM791.797 276.724L791.808 278.724C794.507 278.709 797.196 278.69 799.872 278.667L799.855 276.667L799.839 274.667C797.166 274.69 794.481 274.709 791.785 274.724L791.797 276.724ZM807.846 276.588L807.868 278.588C810.522 278.558 813.164 278.524 815.794 278.487L815.765 276.487L815.737 274.487C813.111 274.525 810.473 274.558 807.823 274.588L807.846 276.588ZM823.611 276.363L823.646 278.363C826.312 278.316 828.964 278.266 831.604 278.211L831.562 276.211L831.521 274.212C828.886 274.266 826.238 274.317 823.577 274.363L823.611 276.363ZM839.621 276.03L839.67 278.03C842.344 277.965 845.003 277.895 847.648 277.821L847.592 275.822L847.536 273.823C844.896 273.897 842.242 273.966 839.573 274.031L839.621 276.03ZM855.472 275.586L855.535 277.585C858.149 277.502 860.748 277.414 863.33 277.321L863.258 275.322L863.186 273.323C860.609 273.416 858.016 273.504 855.408 273.587L855.472 275.586ZM871.355 275.012L871.436 277.011C874.132 276.901 876.81 276.786 879.468 276.666L879.378 274.668L879.287 272.67C876.635 272.79 873.964 272.905 871.274 273.014L871.355 275.012ZM887.286 274.29L887.386 276.287C890.006 276.155 892.607 276.017 895.188 275.874L895.076 273.877L894.965 271.88C892.392 272.023 889.798 272.161 887.185 272.292L887.286 274.29ZM903.067 273.409L903.189 275.405C905.904 275.238 908.595 275.064 911.262 274.883L911.126 272.887L910.991 270.892C908.333 271.072 905.65 271.246 902.944 271.412L903.067 273.409ZM919.04 272.323L919.189 274.318C921.807 274.122 924.401 273.92 926.968 273.709L926.805 271.716L926.642 269.723C924.084 269.932 921.5 270.134 918.892 270.329L919.04 272.323ZM934.774 271.033L934.952 273.025C937.674 272.78 940.366 272.527 943.026 272.264L942.83 270.274L942.633 268.284C939.985 268.545 937.305 268.797 934.595 269.041L934.774 271.033ZM950.696 269.461L950.911 271.449C953.508 271.168 956.072 270.878 958.604 270.578L958.369 268.592L958.134 266.606C955.616 266.904 953.065 267.193 950.481 267.472L950.696 269.461ZM966.458 267.587L966.716 269.57C969.418 269.218 972.079 268.854 974.699 268.478L974.415 266.499L974.13 264.519C971.529 264.892 968.885 265.254 966.199 265.604L966.458 267.587ZM982.118 265.339L982.43 267.314C985.101 266.892 987.724 266.457 990.299 266.007L989.954 264.037L989.61 262.067C987.058 262.512 984.456 262.944 981.806 263.363L982.118 265.339ZM997.946 262.565L998.327 264.528C1000.95 264.019 1003.51 263.494 1006.02 262.952L1005.59 260.997L1005.17 259.042C1002.69 259.578 1000.16 260.097 997.564 260.601L997.946 262.565ZM1013.32 259.228L1013.79 261.172C1016.51 260.512 1019.15 259.83 1021.71 259.125L1021.18 257.196L1020.65 255.268C1018.13 255.962 1015.53 256.634 1012.84 257.284L1013.32 259.228ZM1028.56 255.031L1029.16 256.939C1031.87 256.089 1034.48 255.208 1036.98 254.295L1036.3 252.416L1035.61 250.537C1033.17 251.427 1030.62 252.288 1027.96 253.122L1028.56 255.031ZM1043.61 249.521L1044.41 251.358C1045.58 250.851 1046.73 250.335 1047.85 249.81L1047 248L1046.15 246.19C1045.07 246.695 1043.96 247.193 1042.82 247.684L1043.61 249.521ZM1047 248L1047.85 249.81C1049.13 249.209 1050.38 248.596 1051.6 247.973L1050.69 246.192L1049.78 244.411C1048.6 245.014 1047.39 245.607 1046.15 246.19L1047 248ZM1057.77 242.247L1058.81 243.955C1061.24 242.475 1063.53 240.944 1065.68 239.365L1064.49 237.754L1063.31 236.143C1061.26 237.649 1059.07 239.116 1056.73 240.538L1057.77 242.247ZM1070.78 232.617L1072.13 234.096C1074.26 232.158 1076.2 230.162 1077.97 228.111L1076.45 226.807L1074.93 225.503C1073.28 227.424 1071.45 229.304 1069.44 231.137L1070.78 232.617ZM1081.29 220.327L1082.97 221.405C1084.53 218.985 1085.85 216.507 1086.96 213.979L1085.13 213.177L1083.29 212.375C1082.27 214.707 1081.05 217 1079.61 219.248L1081.29 220.327ZM1087.75 205.515L1089.69 206.004C1090.38 203.266 1090.84 200.489 1091.07 197.684L1089.08 197.52L1087.08 197.356C1086.87 199.946 1086.45 202.506 1085.81 205.026L1087.75 205.515ZM1089.11 189.42L1091.1 189.276C1090.9 186.52 1090.5 183.75 1089.91 180.975L1087.95 181.393L1086 181.812C1086.55 184.414 1086.93 187.001 1087.11 189.564L1089.11 189.42ZM1085.77 173.586L1087.66 172.935C1086.77 170.359 1085.72 167.787 1084.53 165.224L1082.72 166.071L1080.9 166.917C1082.04 169.359 1083.04 171.802 1083.88 174.238L1085.77 173.586ZM1078.95 158.894L1080.67 157.886C1079.31 155.542 1077.82 153.212 1076.21 150.9L1074.57 152.042L1072.92 153.184C1074.48 155.413 1075.91 157.654 1077.22 159.901L1078.95 158.894ZM1069.71 145.567L1071.27 144.312C1069.57 142.209 1067.78 140.126 1065.9 138.066L1064.42 139.416L1062.95 140.766C1064.78 142.766 1066.51 144.786 1068.15 146.821L1069.71 145.567ZM1058.77 133.585L1060.17 132.153C1058.23 130.265 1056.21 128.401 1054.12 126.564L1052.8 128.067L1051.48 129.57C1053.52 131.362 1055.49 133.179 1057.37 135.017L1058.77 133.585ZM1046.58 122.869L1047.83 121.305C1045.72 119.624 1043.54 117.97 1041.3 116.346L1040.13 117.965L1038.95 119.584C1041.15 121.173 1043.28 122.791 1045.34 124.434L1046.58 122.869ZM1033.46 113.346L1034.56 111.678C1032.31 110.186 1030 108.724 1027.64 107.295L1026.61 109.006L1025.57 110.717C1027.89 112.118 1030.15 113.551 1032.36 115.013L1033.46 113.346ZM1019.58 104.94L1020.55 103.19C1019.36 102.529 1018.15 101.876 1016.94 101.232L1016 103L1015.06 104.768C1016.26 105.4 1017.44 106.041 1018.61 106.69L1019.58 104.94Z" fill="#E9D981"/>
<defs>
<clipPath id="clip0_122_56">
<rect width="171.148" height="168.432" fill="white" transform="translate(805 21.2793) rotate(-7.14213)"/>
</clipPath>
</defs>
</svg>
